#!OML:ASF X:\für Bonn\!DataBase\2005_08_11_Bastian_Final\c3d\Bastian.ASF
:FULLY-SPECIFIED
:DEGREES
62
root -20.9794 16.7136 -22.6542 177.182 124.735 -547.547
lowerback 8.73309 -4.48922 -0.432703
upperback 6.21892 -5.85272 1.70074
thorax 1.80188 -2.92432 2.39606
lowerneck -4.40337 4.27806 -5.5328
upperneck -3.66726 6.07881 4.94283
head -0.743658 3.12153 2.54548
rclavicle 1.2106e-013 -5.12864e-014
rhumerus -55.6492 10.6411 -84.7569
rradius 47.6733
rwrist 3.41598
rhand -12.3921 8.39311
rfingers 7.12502
rthumb 13.6791 -21.1373
lclavicle 1.2106e-013 -5.12864e-014
lhumerus -21.2534 -24.0546 93.3159
lradius 97.0629
lwrist 204.464
lhand -31.1747 17.0893
lfingers 7.12502
lthumb -4.45183 47.0225
rfemur -46.0574 -3.52261 19.8967
rtibia 52.481
rfoot -25.0956 -0.891272
rtoes -20.5862
lfemur 27.3956 -1.51878 -14.1879
ltibia -5.08889e-014
lfoot -16.5284 0.355038
ltoes -28.5942
63
root -20.8498 16.6739 -22.4973 177.059 124.521 -547.681
lowerback 8.69528 -4.4909 -0.304177
upperback 6.3224 -5.84447 1.74231
thorax 1.92184 -2.91661 2.35938
lowerneck -4.50066 4.3083 -5.48585
upperneck -3.80471 6.12289 4.74306
head -0.764381 3.14562 2.47125
rclavicle -1.74732e-013 6.95746e-014
rhumerus -55.7196 10.5685 -84.4744
rradius 47.6654
rwrist 3.8375
rhand -11.9557 8.5626
rfingers 7.12502
rthumb 14.0997 -20.9391
lclavicle -1.74732e-013 6.95746e-014
lhumerus -20.7565 -24.5272 93.4208
lradius 98.1985
lwrist 204.874
lhand -31.4997 17.659
lfingers 7.12502
lthumb -4.76568 47.5854
rfemur -45.5865 -4.15817 20.3249
rtibia 52.4719
rfoot -24.7655 -0.717343
rtoes -23.0586
lfemur 28.0607 -1.7359 -13.8692
ltibia 2.22639e-014
lfoot -15.896 0.257153
ltoes -28.9984
64
root -20.7186 16.6384 -22.3349 176.917 124.324 -547.856
lowerback 8.62994 -4.48681 -0.185167
upperback 6.42928 -5.83016 1.80005
thorax 2.06306 -2.90648 2.34173
lowerneck -4.64507 4.34819 -5.47596
upperneck -3.93158 6.184 4.56801
head -0.776715 3.17939 2.41353
rclavicle 1.42727e-013 -3.77691e-014
rhumerus -55.7101 10.5123 -84.2233
rradius 47.8413
rwrist 4.15668
rhand -11.6365 8.65975
rfingers 7.12502
rthumb 14.4073 -20.8202
lclavicle 1.42727e-013 -3.77691e-014
lhumerus -20.3844 -25.028 93.4761
lradius 99.3836
lwrist 205.27
lhand -31.6938 18.0372
lfingers 7.12502
lthumb -4.95306 47.9593
rfemur -45.1214 -4.77427 20.7908
rtibia 52.5431
rfoot -24.4394 -0.384548
rtoes -25.3709
lfemur 28.7165 -1.94624 -13.5066
ltibia 1.11319e-013
lfoot -15.0727 0.234633
ltoes -29.71
65
root -20.587 16.6075 -22.1684 176.779 124.143 -548.03
lowerback 8.58054 -4.48628 -0.144434
upperback 6.52426 -5.82603 1.90504
thorax 2.19701 -2.90511 2.41823
lowerneck -4.80003 4.40136 -5.52719
upperneck -4.02746 6.26362 4.35801
head -0.779219 3.22313 2.35608
rclavicle -9.54166e-015 7.55382e-015
rhumerus -55.6432 10.6541 -84.0471
rradius 48.1906
rwrist 4.28228
rhand -11.55 8.70623
rfingers 7.12502
rthumb 14.4906 -20.7678
lclavicle -9.54166e-015 7.55382e-015
lhumerus -20.1338 -25.439 93.5601
lradius 100.535
lwrist 205.659
lhand -31.8135 18.2488
lfingers 7.12502
lthumb -5.06868 48.1681
rfemur -44.6949 -5.28428 21.2331
rtibia 52.8003
rfoot -24.2241 -0.0917807
rtoes -27.5757
lfemur 29.357 -2.14781 -13.131
ltibia 7.31528e-014
lfoot -14.0116 0.250934
ltoes -30.7384
66
root -20.4546 16.5781 -21.9989 176.474 124.014 -548.346
lowerback 8.58605 -4.47234 -0.0187239
upperback 6.63976 -5.79733 2.01468
thorax 2.31324 -2.888 2.45527
lowerneck -4.92877 4.45265 -5.55232
upperneck -4.17299 6.33987 4.14366
head -0.800587 3.26507 2.29131
rclavicle -1.88845e-014 1.23246e-014
rhumerus -55.512 10.7695 -83.9372
rradius 48.7058
rwrist 4.3147
rhand -11.668 8.73785
rfingers 7.12502
rthumb 14.377 -20.7443
lclavicle -1.88845e-014 1.23246e-014
lhumerus -20.0107 -25.8454 93.6181
lradius 101.667
lwrist 205.924
lhand -31.8153 18.4143
lfingers 7.12502
lthumb -5.07039 48.3337
rfemur -44.2107 -5.62838 21.7284
rtibia 53.1358
rfoot -24.017 0.124919
rtoes -29.6839
lfemur 30.0448 -2.32087 -12.6555
ltibia -9.85972e-014
lfoot -12.718 0.262809
ltoes -32.1835
67
root -20.3277 16.5127 -21.8317 176.166 123.896 -548.703
lowerback 8.57676 -4.45747 0.117184
upperback 6.7495 -5.76752 2.1383
thorax 2.43215 -2.87014 2.50022
lowerneck -5.04501 4.50999 -5.52525
upperneck -4.30915 6.41886 3.86503
head -0.816819 3.30758 2.19602
rclavicle -9.12422e-014 2.78299e-014
rhumerus -55.3259 10.9919 -83.9282
rradius 49.313
rwrist 4.25858
rhand -12.0661 8.86927
rfingers 7.12502
rthumb 13.9933 -20.6398
lclavicle -9.12422e-014 2.78299e-014
lhumerus -20.0061 -26.2243 93.6373
lradius 102.734
lwrist 206.171
lhand -31.7 18.451
lfingers 7.12502
lthumb -4.95904 48.373
rfemur -43.9456 -5.77576 22.1788
rtibia 53.6575
rfoot -23.6832 0.41115
rtoes -29.8019
lfemur 26.8945 -2.39331 -12.0593
ltibia 7.86583
lfoot -15.2426 -0.258568
ltoes -34.0833
68
root -20.195 16.4875 -21.6587 175.809 123.804 -549.107
lowerback 8.58769 -4.44494 0.273757
upperback 6.86039 -5.73921 2.25833
thorax 2.53897 -2.85185 2.53204
lowerneck -5.04862 4.58897 -5.44479
upperneck -4.54509 6.51906 3.53158
head -0.88054 3.35997 2.06916
rclavicle -1.39249e-013 6.20208e-014
rhumerus -55.1084 11.3507 -84.0573
rradius 50.0498
rwrist 4.07426
rhand -12.6878 9.08846
rfingers 7.12502
rthumb 13.3941 -20.461
lclavicle -1.39249e-013 6.20208e-014
lhumerus -20.1369 -26.5104 93.6402
lradius 103.699
lwrist 206.341
lhand -31.4964 18.3372
lfingers 7.12502
lthumb -4.76251 48.2637
rfemur -43.4502 -5.78375 22.6269
rtibia 54.0415
rfoot -23.3896 0.872035
rtoes -29.2791
lfemur 25.419 -2.4694 -11.4793
ltibia 12.1732
lfoot -15.638 -0.665428
ltoes -36.3325
